<?xml version="1.0" standalone="no"?><!-- Generator: Gravit.io --><svg xmlns="http://www.w3.org/2000/svg" xmlns:xlink="http://www.w3.org/1999/xlink" style="isolation:isolate" viewBox="0 0 740.693 310" width="740.693" height="310"><defs><clipPath id="_clipPath_uCC4g4D1oBEQ9gb9BfFlTYK5vaJFKnxY"><rect width="740.693" height="310"/></clipPath></defs><g clip-path="url(#_clipPath_uCC4g4D1oBEQ9gb9BfFlTYK5vaJFKnxY)"><path d=" M 132.022 245.417 L 96.759 176.571 L 65.888 176.571 L 65.888 245.417 L 27.138 245.417 L 27.138 57.35 L 97.018 57.35 L 97.018 57.35 Q 130.343 57.35 148.426 72.204 L 148.426 72.204 L 148.426 72.204 Q 166.509 87.058 166.509 114.183 L 166.509 114.183 L 166.509 114.183 Q 166.509 133.429 158.178 146.281 L 158.178 146.281 L 158.178 146.281 Q 149.847 159.133 132.926 166.754 L 132.926 166.754 L 173.613 243.608 L 173.613 245.417 L 132.022 245.417 L 132.022 245.417 Z  M 65.888 88.738 L 65.888 145.183 L 97.147 145.183 L 97.147 145.183 Q 111.743 145.183 119.751 137.756 L 119.751 137.756 L 119.751 137.756 Q 127.759 130.329 127.759 117.283 L 127.759 117.283 L 127.759 117.283 Q 127.759 103.979 120.203 96.358 L 120.203 96.358 L 120.203 96.358 Q 112.647 88.738 97.018 88.738 L 97.018 88.738 L 65.888 88.738 L 65.888 88.738 Z  M 350.443 147.25 L 350.443 155.646 L 350.443 155.646 Q 350.443 183.417 340.626 204.342 L 340.626 204.342 L 340.626 204.342 Q 330.809 225.267 312.532 236.633 L 312.532 236.633 L 312.532 236.633 Q 294.255 248 270.618 248 L 270.618 248 L 270.618 248 Q 247.238 248 228.897 236.763 L 228.897 236.763 L 228.897 236.763 Q 210.555 225.525 200.48 204.665 L 200.48 204.665 L 200.48 204.665 Q 190.405 183.804 190.276 156.679 L 190.276 156.679 L 190.276 147.379 L 190.276 147.379 Q 190.276 119.608 200.286 98.49 L 200.286 98.49 L 200.286 98.49 Q 210.297 77.371 228.574 66.069 L 228.574 66.069 L 228.574 66.069 Q 246.851 54.767 270.359 54.767 L 270.359 54.767 L 270.359 54.767 Q 293.868 54.767 312.145 66.069 L 312.145 66.069 L 312.145 66.069 Q 330.422 77.371 340.432 98.49 L 340.432 98.49 L 340.432 98.49 Q 350.443 119.608 350.443 147.25 L 350.443 147.25 L 350.443 147.25 Z  M 311.176 156.292 L 311.176 147.121 L 311.176 147.121 Q 311.176 117.542 300.584 102.171 L 300.584 102.171 L 300.584 102.171 Q 289.993 86.8 270.359 86.8 L 270.359 86.8 L 270.359 86.8 Q 250.855 86.8 240.263 101.977 L 240.263 101.977 L 240.263 101.977 Q 229.672 117.154 229.543 146.475 L 229.543 146.475 L 229.543 155.646 L 229.543 155.646 Q 229.543 184.45 240.134 200.338 L 240.134 200.338 L 240.134 200.338 Q 250.726 216.225 270.618 216.225 L 270.618 216.225 L 270.618 216.225 Q 290.122 216.225 300.584 200.919 L 300.584 200.919 L 300.584 200.919 Q 311.047 185.613 311.176 156.292 L 311.176 156.292 L 311.176 156.292 Z  M 497.822 245.417 L 484.776 206.667 L 416.834 206.667 L 403.918 245.417 L 362.713 245.417 L 432.722 57.35 L 468.63 57.35 L 539.026 245.417 L 497.822 245.417 L 497.822 245.417 Z  M 450.676 104.883 L 427.297 175.279 L 474.313 175.279 L 450.676 104.883 L 450.676 104.883 Z  M 614.847 245.417 L 556.593 245.417 L 556.593 57.35 L 614.459 57.35 L 614.459 57.35 Q 639.259 57.35 658.828 68.523 L 658.828 68.523 L 658.828 68.523 Q 678.397 79.696 689.376 100.298 L 689.376 100.298 L 689.376 100.298 Q 700.355 120.9 700.355 147.121 L 700.355 147.121 L 700.355 155.775 L 700.355 155.775 Q 700.355 181.996 689.57 202.404 L 689.57 202.404 L 689.57 202.404 Q 678.784 222.813 659.151 234.05 L 659.151 234.05 L 659.151 234.05 Q 639.518 245.288 614.847 245.417 L 614.847 245.417 L 614.847 245.417 Z  M 614.459 88.738 L 595.343 88.738 L 595.343 214.288 L 614.072 214.288 L 614.072 214.288 Q 636.805 214.288 648.818 199.433 L 648.818 199.433 L 648.818 199.433 Q 660.83 184.579 661.088 156.938 L 661.088 156.938 L 661.088 146.992 L 661.088 146.992 Q 661.088 118.317 649.205 103.527 L 649.205 103.527 L 649.205 103.527 Q 637.322 88.738 614.459 88.738 L 614.459 88.738 L 614.459 88.738 Z " fill-rule="evenodd" fill="rgb(199,12,62)"/></g></svg>