<svg xmlns="http://www.w3.org/2000/svg" style="isolation:isolate" width="740.693" height="310"><defs><clipPath id="a"><path d="M0 0h740.693v310H0z"/></clipPath></defs><g clip-path="url(#a)"><path d="M132.022 245.417l-35.263-68.846H65.888v68.846h-38.75V57.35h69.88q33.325 0 51.408 14.854t18.083 41.979q0 19.246-8.331 32.098t-25.252 20.473l40.687 76.854v1.809h-41.591zM65.888 88.738v56.445h31.259q14.596 0 22.604-7.427t8.008-20.473q0-13.304-7.556-20.925-7.556-7.62-23.185-7.62h-31.13zm284.555 58.512v8.396q0 27.771-9.817 48.696-9.817 20.925-28.094 32.291Q294.255 248 270.618 248q-23.38 0-41.721-11.237-18.342-11.238-28.417-32.098-10.075-20.861-10.204-47.986v-9.3q0-27.771 10.01-48.889 10.011-21.119 28.288-32.421t41.785-11.302q23.509 0 41.786 11.302t28.287 32.421q10.011 21.118 10.011 48.76zm-39.267 9.042v-9.171q0-29.579-10.592-44.95Q289.993 86.8 270.359 86.8q-19.504 0-30.096 15.177-10.591 15.177-10.72 44.498v9.171q0 28.804 10.591 44.692 10.592 15.887 30.484 15.887 19.504 0 29.966-15.306 10.463-15.306 10.592-44.627zm186.646 89.125l-13.046-38.75h-67.942l-12.916 38.75h-41.205L432.722 57.35h35.908l70.396 188.067h-41.204zm-47.146-140.534l-23.379 70.396h47.016l-23.637-70.396zm164.171 140.534h-58.254V57.35h57.866q24.8 0 44.369 11.173t30.548 31.775q10.979 20.602 10.979 46.823v8.654q0 26.221-10.785 46.629-10.786 20.409-30.419 31.646-19.633 11.238-44.304 11.367zm-.388-156.679h-19.116v125.55h18.729q22.733 0 34.746-14.855 12.012-14.854 12.27-42.495v-9.946q0-28.675-11.883-43.465-11.883-14.789-34.746-14.789z" fill-rule="evenodd" fill="#C70C3E"/></g></svg>